HIERARCHY
ROOT Hips
{
 OFFSET 0.000000 0.000000 0.000000
 CHANNELS 6 Xposition Yposition Zposition Yrotation Xrotation Zrotation
 JOINT Chest
 {
  OFFSET 0.000000 9.585900 0.002600
  CHANNELS 3 Yrotation Xrotation Zrotation
  JOINT Chest2
  {
   OFFSET 0.000000 9.601200 -0.005300
   CHANNELS 3 Yrotation Xrotation Zrotation
   JOINT Chest3
   {
    OFFSET 0.000000 9.561800 0.000000
    CHANNELS 3 Yrotation Xrotation Zrotation
    JOINT Chest4
    {
     OFFSET 0.000000 9.552100 0.000000
     CHANNELS 3 Yrotation Xrotation Zrotation
     JOINT Neck
     {
      OFFSET 0.000000 14.453000 0.000000
      CHANNELS 3 Yrotation Xrotation Zrotation
      JOINT Head
      {
       OFFSET 0.000000 8.936500 -0.011300
       CHANNELS 3 Yrotation Xrotation Zrotation
       End Site
       {
        OFFSET 0.000000 17.073600 -0.006000
       }
      }
     }
     JOINT RightCollar
     {
      OFFSET -2.921100 9.558500 0.000000
      CHANNELS 3 Yrotation Xrotation Zrotation
      JOINT RightShoulder
      {
       OFFSET -13.519700 0.000000 0.000000
       CHANNELS 3 Yrotation Xrotation Zrotation
       JOINT RightElbow
       {
        OFFSET 0.000000 -29.696600 0.000000
        CHANNELS 3 Yrotation Xrotation Zrotation
        JOINT RightWrist
        {
         OFFSET 0.000000 -24.004700 0.000000
         CHANNELS 3 Yrotation Xrotation Zrotation
         End Site
         {
          OFFSET 0.000000 -17.728500 0.000000
         }
        }
       }
      }
     }
     JOINT LeftCollar
     {
      OFFSET 2.921100 9.558500 0.000000
      CHANNELS 3 Yrotation Xrotation Zrotation
      JOINT LeftShoulder
      {
       OFFSET 13.519700 0.000000 0.000000
       CHANNELS 3 Yrotation Xrotation Zrotation
       JOINT LeftElbow
       {
        OFFSET 0.000000 -29.696600 0.000000
        CHANNELS 3 Yrotation Xrotation Zrotation
        JOINT LeftWrist
        {
         OFFSET 0.000000 -24.004700 0.000000
         CHANNELS 3 Yrotation Xrotation Zrotation
         End Site
         {
          OFFSET 0.000000 -17.728500 0.000000
         }
        }
       }
      }
     }
    }
   }
  }
 }
 JOINT RightHip
 {
  OFFSET -7.771700 -0.012900 -0.001300
  CHANNELS 3 Yrotation Xrotation Zrotation
  JOINT RightKnee
  {
   OFFSET 0.000000 -40.869800 0.001200
   CHANNELS 3 Yrotation Xrotation Zrotation
   JOINT RightAnkle
   {
    OFFSET 0.000000 -39.717900 0.002100
    CHANNELS 3 Yrotation Xrotation Zrotation
    JOINT RightToe
    {
     OFFSET 0.000000 -4.965400 11.033500
     CHANNELS 3 Yrotation Xrotation Zrotation
     End Site
     {
      OFFSET 0.000000 -1.423100 5.872300
     }
    }
   }
  }
 }
 JOINT LeftHip
 {
  OFFSET 7.771700 -0.012900 -0.001300
  CHANNELS 3 Yrotation Xrotation Zrotation
  JOINT LeftKnee
  {
   OFFSET 0.000000 -40.869800 0.001200
   CHANNELS 3 Yrotation Xrotation Zrotation
   JOINT LeftAnkle
   {
    OFFSET 0.000000 -39.717900 0.002100
    CHANNELS 3 Yrotation Xrotation Zrotation
    JOINT LeftToe
    {
     OFFSET 0.000000 -4.965400 11.033500
     CHANNELS 3 Yrotation Xrotation Zrotation
     End Site
     {
      OFFSET 0.000000 -1.423100 5.872300
     }
    }
   }
  }
 }
}
MOTION
Frames: 8
Frame Time: 0.008333
-31.910505 55.919338 37.684343 -170.236419 -29.186767 -7.563478 -4.383845 16.177230 5.177419 -2.457481 9.226050 2.529251 -3.032144 11.566415 3.096140 -2.458808 9.231984 2.526883 3.846000 20.281157 -4.800432 5.291208 -3.950497 -6.091000 0.073405 -3.500542 -6.636624 3.714520 -19.922618 1.353559 64.337446 -42.439429 -48.539392 7.435530 4.979442 -23.307041 -16.788282 -1.225501 -3.482202 -4.524807 -26.660580 23.293533 -72.209021 -38.082694 76.625415 5.648712 -22.650477 20.162484 -23.775170 -31.291039 1.367744 115.881612 88.962404 113.843917 1.561242 -26.447204 -3.579490 -0.015536 0.805512 -0.019103 -12.894679 -46.070069 1.930327 176.398701 73.916678 174.406919 0.121296 -26.055112 -0.056588 -0.048934 -0.770523 -0.027291
-31.905367 55.918519 37.687445 -170.239463 -29.190527 -7.565792 -4.396644 16.194874 5.161938 -2.461332 9.238157 2.524592 -3.021765 11.563395 3.102720 -2.461353 9.238182 2.524546 3.860823 20.274546 -4.803665 5.301156 -3.917242 -6.115650 0.072086 -3.502413 -6.643819 3.711790 -19.944648 1.347430 64.328199 -42.458659 -48.517124 7.428075 4.963811 -23.305256 -16.785503 -1.232981 -3.485640 -4.514434 -26.684371 23.269242 -72.167512 -38.070886 76.584522 5.622987 -22.642555 20.139428 -23.779035 -31.287707 1.372518 115.645019 88.960773 113.614085 1.559467 -26.441903 -3.586084 -0.014531 0.804268 -0.020205 -12.888573 -46.069957 1.926772 176.400454 73.914809 174.421061 0.131416 -26.051726 -0.066341 -0.049806 -0.772401 -0.027404
-31.900302 55.917451 37.691174 -170.243073 -29.191316 -7.568043 -4.401906 16.202729 5.157550 -2.464801 9.244676 2.521788 -3.026135 11.571531 3.099085 -2.464799 9.244725 2.521766 3.886527 20.255700 -4.801251 5.311398 -3.913163 -6.124304 0.077743 -3.501824 -6.651603 3.702916 -19.962606 1.347328 64.330009 -42.482729 -48.512540 7.424712 4.948889 -23.298906 -16.770985 -1.239129 -3.489302 -4.504050 -26.706964 23.245833 -72.138294 -38.067089 76.553342 5.647724 -22.541892 20.021530 -23.782884 -31.287962 1.371967 115.275570 88.950471 113.259219 1.561405 -26.435918 -3.600832 -0.012600 0.803308 -0.021626 -12.888335 -46.072402 1.932291 176.417306 73.913780 174.443295 0.137272 -26.050131 -0.069859 -0.050624 -0.772271 -0.027762
-31.895978 55.916430 37.694913 -170.244950 -29.193249 -7.568494 -4.409757 16.210700 5.151154 -2.465305 9.248759 2.520346 -3.033346 11.582218 3.093739 -2.468048 9.251324 2.518687 3.908235 20.251928 -4.808861 5.326883 -3.925263 -6.126732 0.093821 -3.512251 -6.652108 3.690847 -19.966107 1.344061 64.326793 -42.503309 -48.510491 7.413215 4.932390 -23.297864 -16.762436 -1.247053 -3.491791 -4.485977 -26.720940 23.226965 -72.135825 -38.054584 76.550236 5.676224 -22.496347 19.951320 -23.784422 -31.288157 1.374643 115.077983 88.946858 113.067543 1.560940 -26.430801 -3.604505 -0.013603 0.802696 -0.026473 -12.887191 -46.075005 1.936615 176.446714 73.913157 174.475036 0.139082 -26.043969 -0.067285 -0.049424 -0.775455 -0.029290
-31.892198 55.916184 37.697415 -170.254023 -29.205346 -7.565623 -4.408615 16.227440 5.145632 -2.459919 9.246878 2.522506 -3.038196 11.588721 3.090457 -2.469439 9.254573 2.517211 3.918661 20.264462 -4.820281 5.389085 -3.894587 -6.162398 0.097114 -3.510422 -6.656013 3.689266 -19.976179 1.347634 64.319083 -42.513208 -48.513915 7.395936 4.920040 -23.300772 -16.768338 -1.243897 -3.500163 -4.472851 -26.732844 23.227843 -72.126838 -38.059836 76.543017 5.691703 -22.489327 19.920292 -23.776425 -31.279713 1.371227 114.893065 88.943683 112.889676 1.564255 -26.425040 -3.611082 -0.013374 0.801583 -0.027022 -12.876135 -46.065367 1.936765 176.479679 73.913191 174.509460 0.146153 -26.040037 -0.068211 -0.051709 -0.777694 -0.027493
-31.888695 55.915314 37.701143 -170.258760 -29.208656 -7.564396 -4.410201 16.236738 5.140993 -2.463554 9.251410 2.519892 -3.032920 11.587805 3.091868 -2.470149 9.257546 2.516246 3.933799 20.281563 -4.829842 5.390313 -3.913631 -6.157915 0.090794 -3.495958 -6.667757 3.669405 -19.984225 1.346686 64.336214 -42.546408 -48.525482 7.397338 4.910163 -23.296185 -16.773851 -1.238173 -3.518227 -4.469770 -26.744899 23.240490 -72.107666 -38.080141 76.527314 5.686201 -22.508654 19.915898 -23.776274 -31.280267 1.370203 114.782989 88.942034 112.786899 1.572163 -26.418049 -3.619406 -0.014104 0.799702 -0.026877 -12.876564 -46.065293 1.947480 176.509437 73.913345 174.533660 0.143854 -26.035751 -0.063093 -0.050553 -0.779042 -0.027826
-31.885787 55.914521 37.704920 -170.260590 -29.211284 -7.563681 -4.411062 16.242632 5.138270 -2.471011 9.273776 2.510793 -3.029764 11.598120 3.089095 -2.468994 9.274732 2.510135 3.970888 20.286133 -4.836313 5.407132 -3.925962 -6.160211 0.097078 -3.521681 -6.660092 3.660219 -19.987075 1.338738 64.341039 -42.574315 -48.551708 7.394193 4.896796 -23.287875 -16.776663 -1.244972 -3.536931 -4.483029 -26.771085 23.272272 -72.101719 -38.084431 76.522212 5.680385 -22.536084 19.933160 -23.775776 -31.281158 1.367474 114.674106 88.938803 112.685919 1.579033 -26.412090 -3.625008 -0.012753 0.799065 -0.023359 -12.880572 -46.065167 1.959691 176.533433 73.914273 174.549008 0.137569 -26.032918 -0.054573 -0.049696 -0.777387 -0.028374
-31.883037 55.913993 37.708510 -170.271964 -29.215707 -7.560379 -4.402745 16.249501 5.137175 -2.470315 9.281241 2.510014 -3.027528 11.614628 3.084098 -2.465280 9.276368 2.510566 3.985801 20.287866 -4.841831 5.429452 -3.916429 -6.167467 0.076222 -3.496296 -6.663026 3.634128 -19.980381 1.330552 64.413116 -42.628297 -48.622976 7.385844 4.891002 -23.283544 -16.779472 -1.258892 -3.531564 -4.488128 -26.777557 23.261037 -72.107576 -38.091722 76.525089 5.674951 -22.560171 19.951377 -23.776983 -31.281822 1.372169 114.554446 88.940546 112.566074 1.583471 -26.403497 -3.631719 -0.012983 0.796647 -0.023790 -12.877421 -46.062311 1.974030 176.570562 73.915722 174.577153 0.134211 -26.031501 -0.046608 -0.048723 -0.776397 -0.027389
